# xmcd
#
# Track frame offsets:
#	150
#	12782
#	22545
#	33662
#	43920
#	53912
#	63652
#	75815
#	87775
#	95962
#	107725
#	119155
#	131557
#	143257
#	155257
#	165172
#	173287
#	185645
#
# Disc length: 2609 seconds
#
# Revision: 5
# Processed by: cddbd v1.5.2PL0 Copyright (c) Steve Scherf et al.
# Submitted via: audiograbber 1.83.01
#
DISCID=d80a2f12
DTITLE=Cash, Johnny - Folsom Prison blues
DYEAR=1962
DGENRE=Country
TTITLE0=Folsom Prison blues
TTITLE1=Born to lose
TTITLE2=Oh, lonesome me
TTITLE3=There you go
TTITLE4=Get rhythm
TTITLE5=Rock Island line
TTITLE6=Give my love to Rose
TTITLE7=You're the nearest thing to heaven
TTITLE8=Sugartime
TTITLE9=Doin' my time
TTITLE10=Big river
TTITLE11=Next in line
TTITLE12=So doggone lonesome
TTITLE13=Home of the blues
TTITLE14=Ballad of a teenage queen
TTITLE15=The wreck of rhe old '97
TTITLE16=I walk the line
TTITLE17=The ways of a woman in love
EXTD=
EXTT0=
EXTT1=
EXTT2=
EXTT3=
EXTT4=
EXTT5=
EXTT6=
EXTT7=
EXTT8=
EXTT9=
EXTT10=
EXTT11=
EXTT12=
EXTT13=
EXTT14=
EXTT15=
EXTT16=
EXTT17=
PLAYORDER=
